<svg height="80" viewBox="0 0 80 80" width="80" xmlns="http://www.w3.org/2000/svg"><g fill="none" transform=""><path d="m40 45.3333333c-22.09136 0-40 15.5208134-40 34.6666667h80c0-19.1458533-17.90864-34.6666667-40-34.6666667z" fill="#0074e4"/><path d="m24.8275867 74.2222267c-4.5635734 0-8.2758667-3.2401334-8.2758667-7.2222267h2.7586667c0 2.3895333 2.47508 4.3333333 5.51724 4.3333333s5.51724-1.9438 5.51724-4.3333333h2.7586666c-.00008 3.9820933-3.7123733 7.2222267-8.2759466 7.2222267z" fill="#fff"/><path d="m55.1724133 74.2222267c-4.5635733 0-8.2758666-3.2401334-8.2758666-7.2222267h2.7586666c0 2.3895333 2.47508 4.3333333 5.51724 4.3333333s5.51724-1.9438 5.51724-4.3333333h2.7586667c-.00008 3.9820933-3.71236 7.2222267-8.2759467 7.2222267z" fill="#fff"/><circle cx="56" cy="38.666667" fill="#18baeb" r="4"/><circle cx="24" cy="38.666667" fill="#072a44" r="4"/><path d="m34.63004 14.6666667c2.8720497-2.1037299 3.5746505-6.09781081 1.5929343-9.05536894-1.9817161-2.95755813-5.9429013-3.82666257-8.9807876-1.97043109-1.1237187-2.23237117-3.4096086-3.6408741-5.9088534-3.6408741s-4.7851346 1.40850293-5.9088533 3.6408741c-3.0372902-1.84427694-6.98810843-.97168245-8.96607943 1.98028637-1.977971 2.95196881-1.28254057 6.93778896 1.5782261 9.04551366-2.87204975 2.1037298-3.57465046 6.0978107-1.59293434 9.0553689 1.98171613 2.9575581 5.94290127 3.8266625 8.98078767 1.9704311 1.1237187 2.2323711 3.4096085 3.6408741 5.9088533 3.6408741s4.7851347-1.408503 5.9088534-3.6408741c3.0372902 1.8442769 6.9881084.9716824 8.9660794-1.9802864s1.2825406-6.937789-1.5782261-9.0455136z" fill="#072a44"/><path d="m71.9633733 14.6666667c2.8720498-2.1037299 3.5746505-6.09781081 1.5929344-9.05536894-1.9817162-2.95755813-5.9429013-3.82666257-8.9807877-1.97043109-1.1237187-2.23237117-3.4096085-3.6408741-5.9088533-3.6408741s-4.7851347 1.40850293-5.9088534 3.6408741c-3.0372902-1.84427694-6.9881084-.97168245-8.9660794 1.98028637-1.977971 2.95196881-1.2825406 6.93778896 1.5782261 9.04551366-2.8720497 2.1037298-3.5746505 6.0978107-1.5929343 9.0553689 1.9817161 2.9575581 5.9429013 3.8266625 8.9807876 1.9704311 1.1237187 2.2323711 3.4096086 3.6408741 5.9088534 3.6408741s4.7851346-1.408503 5.9088533-3.6408741c3.0372902 1.8442769 6.9881084.9716824 8.9660794-1.9802864s1.2825406-6.937789-1.5782261-9.0455136z" fill="#18baeb"/><g fill="#fff"><g transform="translate(12 8)"><path d="m0 0h2.66666667v13.3333333h-2.66666667z"/><path d="m5.33333333 2.66666667h2.66666667v10.66666663h-2.66666667z"/><path d="m10.6666667 6.66666667h2.6666666v6.66666663h-2.6666666z"/><path d="m16 9.33333333h2.6666667v3.99999997h-2.6666667z"/></g><path d="m65.3333333 8h2.6666667v13.3333333h-2.6666667z"/><path d="m60 10.6666667h2.6666667v10.6666666h-2.6666667z"/><path d="m54.6666667 14.6666667h2.6666666v6.6666666h-2.6666666z"/><path d="m49.3333333 17.3333333h2.6666667v4h-2.6666667z"/></g></g></svg>