<svg height="10" viewBox="0 0 10 10" width="10" xmlns="http://www.w3.org/2000/svg"><path d="m2.95673077 106.038462 1.53846154 1.538461 4.30288461-4.278846.69711539.697115-5 5-2.23557693-2.235577zm6.03365385.961538h1.00961538c0 1.378212-.48877716 2.556085-1.46634615 3.533654s-2.15544183 1.466346-3.53365385 1.466346-2.55608486-.488777-3.53365385-1.466346c-.97756899-.977569-1.46634615-2.155442-1.46634615-3.533654s.48877716-2.556085 1.46634615-3.533654 2.15544183-1.466346 3.53365385-1.466346c.64102885 0 1.2660226.128204 1.875.384615l-.76923077.769231c-.35256586-.096154-.72115192-.144231-1.10576923-.144231-1.10577476 0-2.04727175.388618-2.82451923 1.165866-.77724748.777247-1.16586539 1.718744-1.16586539 2.824519s.38861791 2.047272 1.16586539 2.824519c.77724748.777248 1.71874447 1.165866 2.82451923 1.165866s2.04727175-.388618 2.82451923-1.165866c.77724748-.777247 1.16586539-1.718744 1.16586539-2.824519z" fill="#25a318" fill-rule="evenodd" transform="translate(0 -102)"/></svg>