<svg height="39" viewBox="0 0 143 39" width="143" xmlns="http://www.w3.org/2000/svg"><g fill="none" fill-rule="evenodd"><g transform="translate(44)"><path d="m4.25707694 13.832c0 .6720034.12133212 1.241331.364 1.708s.56466466.8446652.966 1.134.87266396.5039993 1.414.644 1.10133044.21 1.68.21c.39200196 0 .81199776-.0326663 1.26-.098.44800226-.0653337.86799806-.1913324 1.25999996-.378.392002-.1866676.7186654-.4433317.98-.77.2613347-.3266683.392-.7419975.392-1.246 0-.541336-.1726649-.9799983-.518-1.316-.345335-.3360017-.7979972-.6159989-1.358-.84s-1.19466308-.4199992-1.90399996-.588-1.42799636-.3546656-2.156-.56c-.7466704-.1866676-1.47466312-.415332-2.184-.686s-1.3439972-.6206645-1.904-1.05c-.5600028-.42933548-1.01266494-.96599678-1.358-1.61s-.518-1.42332876-.518-2.338c0-1.0266718.21933114-1.91799622.658-2.674s1.01266312-1.38599748 1.722-1.89 1.51199552-.87733212 2.408-1.12c.89600448-.24266788 1.79199552-.364 2.688-.364 1.04533856 0 2.04866186.1166655 3.00999996.35.9613382.2333345 1.8153296.61133072 2.562 1.134s1.3393312 1.18999594 1.778 2.002c.4386689.81200406.658 1.79666088.658 2.954h-4.256c-.0373335-.59733632-.1633322-1.09199804-.378-1.484-.2146677-.39200196-.4993315-.69999888-.854-.924-.3546684-.22400112-.76066434-.3826662-1.21799996-.476s-.95666396-.14-1.498-.14c-.35466844 0-.70933156.03733296-1.064.112s-.67666522.2053324-.966.392-.5273324.4199986-.714.7-.28.63466452-.28 1.064c0 .39200196.07466592.70933212.224.952s.44333114.46666564.882.672 1.04532946.41066564 1.82.616 1.78732708.46666508 3.03799996.784c.3733352.07466704.8913301.20999902 1.554.406.66267.19600098 1.3206634.50866452 1.974.938.6533366.4293355 1.2179977 1.0033297 1.694 1.722.4760024.7186703.714 1.6379944.714 2.758 0 .9146712-.1773315 1.7639961-.532 2.548-.3546684.7840039-.8819965 1.4606638-1.582 2.03s-1.5679948 1.0126651-2.604 1.33c-1.0360051.3173349-2.23532648.476-3.59799996.476-1.10133884 0-2.16999482-.135332-3.206-.406s-1.9506627-.6953304-2.744-1.274-1.423331-1.3159955-1.89-2.212c-.466669-.8960045-.69066676-1.9599938-.672-3.192zm14.58799996-3.388c.0560003-.933338.2893313-1.70799692.7-2.324.4106688-.61600308.9333302-1.1106648 1.568-1.484.6346699-.3733352 1.3486627-.63933254 2.142-.798s1.5913294-.238 2.394-.238c.7280037 0 1.4653296.05133282 2.212.154s1.427997.30333184 2.044.602c.6160031.29866816 1.1199981.71399734 1.512 1.246.392002.53200266.588 1.23666228.588 2.114v7.532c0 .6533366.037333 1.2786637.112 1.876.0746671.5973363.2053324 1.0453318.392 1.344h-4.032c-.074667-.2240011-.1353331-.4526655-.182-.686s-.0793332-.4713321-.098-.714c-.6346698.6533366-1.381329 1.1106654-2.24 1.372-.8586709.2613346-1.7359955.392-2.632.392-.6906701 0-1.3346636-.0839992-1.932-.252-.5973363-.1680008-1.1199977-.4293316-1.568-.784-.4480022-.3546684-.7979987-.802664-1.05-1.344-.2520012-.541336-.378-1.1853296-.378-1.932 0-.8213374.1446653-1.4979973.434-2.03.2893348-.5320027.6626644-.9566651 1.12-1.274.4573357-.3173349.9799971-.5553325 1.568-.714.588003-.1586675 1.1806637-.2846662 1.778-.378.5973364-.0933338 1.1853305-.1679997 1.764-.224.5786696-.0560003 1.0919978-.1399994 1.54-.252.4480023-.1120006.8026654-.2753323 1.064-.49.2613347-.2146677.3826668-.5273313.364-.938 0-.42933548-.0699993-.76999874-.21-1.022s-.3266655-.4479993-.56-.588-.5039984-.2333331-.812-.28c-.3080015-.0466669-.6393315-.07-.994-.07-.7840039 0-1.3999977.16799832-1.848.504-.4480022.33600168-.7093329.89599608-.784 1.68zm9.184 2.94c-.1680008.1493341-.3779987.2659996-.63.35-.2520012.0840004-.5226652.1539997-.812.21-.2893347.0560003-.592665.1026665-.91.14-.3173349.0373335-.634665.0839997-.952.14-.2986681.0560003-.5926652.1306662-.882.224-.2893347.0933338-.5413322.2193325-.756.378-.2146677.1586675-.3873326.3593321-.518.602-.1306673.2426679-.196.5506648-.196.924 0 .3546684.0653327.6533321.196.896.1306674.2426679.3079989.4339993.532.574.2240012.1400007.4853319.2379997.784.294.2986682.0560003.6066651.084.924.084.784004 0 1.3906646-.1306654 1.82-.392.4293355-.2613346.7466657-.5739982.952-.938.2053344-.3640018.3313331-.7326648.378-1.106s.07-.6719989.07-.896zm6.888-2.94c.0560003-.933338.2893313-1.70799692.7-2.324.4106688-.61600308.9333302-1.1106648 1.568-1.484.6346699-.3733352 1.3486627-.63933254 2.142-.798s1.5913294-.238 2.394-.238c.7280037 0 1.4653296.05133282 2.212.154s1.427997.30333184 2.044.602c.6160031.29866816 1.1199981.71399734 1.512 1.246.392002.53200266.588 1.23666228.588 2.114v7.532c0 .6533366.037333 1.2786637.112 1.876.0746671.5973363.2053324 1.0453318.392 1.344h-4.032c-.074667-.2240011-.1353331-.4526655-.182-.686s-.0793332-.4713321-.098-.714c-.6346698.6533366-1.381329 1.1106654-2.24 1.372-.8586709.2613346-1.7359955.392-2.632.392-.6906701 0-1.3346636-.0839992-1.932-.252-.5973363-.1680008-1.1199977-.4293316-1.568-.784-.4480022-.3546684-.7979987-.802664-1.05-1.344-.2520012-.541336-.378-1.1853296-.378-1.932 0-.8213374.1446653-1.4979973.434-2.03.2893348-.5320027.6626644-.9566651 1.12-1.274.4573357-.3173349.9799971-.5553325 1.568-.714.588003-.1586675 1.1806637-.2846662 1.778-.378.5973364-.0933338 1.1853305-.1679997 1.764-.224.5786696-.0560003 1.0919978-.1399994 1.54-.252.4480023-.1120006.8026654-.2753323 1.064-.49.2613347-.2146677.3826668-.5273313.364-.938 0-.42933548-.0699993-.76999874-.21-1.022s-.3266655-.4479993-.56-.588-.5039984-.2333331-.812-.28c-.3080015-.0466669-.6393315-.07-.994-.07-.7840039 0-1.3999977.16799832-1.848.504-.4480022.33600168-.7093329.89599608-.784 1.68zm9.184 2.94c-.1680008.1493341-.3779987.2659996-.63.35-.2520012.0840004-.5226652.1539997-.812.21-.2893347.0560003-.592665.1026665-.91.14-.3173349.0373335-.634665.0839997-.952.14-.2986681.0560003-.5926652.1306662-.882.224-.2893347.0933338-.5413322.2193325-.756.378-.2146677.1586675-.3873326.3593321-.518.602-.1306673.2426679-.196.5506648-.196.924 0 .3546684.0653327.6533321.196.896.1306674.2426679.3079989.4339993.532.574.2240012.1400007.4853319.2379997.784.294.2986682.0560003.6066651.084.924.084.784004 0 1.3906646-.1306654 1.82-.392.4293355-.2613346.7466657-.5739982.952-.938.2053344-.3640018.3313331-.7326648.378-1.106s.07-.6719989.07-.896zm10.472.448c0 .6720034.1213322 1.241331.364 1.708.2426679.466669.5646647.8446652.966 1.134.4013354.2893348.872664.5039993 1.414.644.5413361.1400007 1.1013305.21 1.68.21.392002 0 .8119978-.0326663 1.26-.098.4480023-.0653337.8679981-.1913324 1.26-.378.392002-.1866676.7186654-.4433317.98-.77.2613347-.3266683.392-.7419975.392-1.246 0-.541336-.1726649-.9799983-.518-1.316-.345335-.3360017-.7979972-.6159989-1.358-.84s-1.1946631-.4199992-1.904-.588c-.7093368-.1680008-1.4279963-.3546656-2.156-.56-.7466704-.1866676-1.4746631-.415332-2.184-.686-.7093368-.270668-1.3439972-.6206645-1.904-1.05-.5600028-.42933548-1.0126649-.96599678-1.358-1.61-.345335-.64400322-.518-1.42332876-.518-2.338 0-1.0266718.2193312-1.91799622.658-2.674.4386689-.75600378 1.0126632-1.38599748 1.722-1.89.7093369-.50400252 1.5119956-.87733212 2.408-1.12.8960045-.24266788 1.7919956-.364 2.688-.364 1.0453386 0 2.0486619.1166655 3.01.35.9613382.2333345 1.8153296.61133072 2.562 1.134s1.3393312 1.18999594 1.778 2.002c.4386689.81200406.658 1.79666088.658 2.954h-4.256c-.0373335-.59733632-.1633322-1.09199804-.378-1.484-.2146677-.39200196-.4993315-.69999888-.854-.924-.3546684-.22400112-.7606643-.3826662-1.218-.476-.4573356-.0933338-.9566639-.14-1.498-.14-.3546684 0-.7093315.03733296-1.064.112-.3546684.07466704-.6766652.2053324-.966.392-.2893347.1866676-.5273324.4199986-.714.7s-.28.63466452-.28 1.064c0 .39200196.074666.70933212.224.952.1493341.24266788.4433312.46666564.882.672.4386689.20533436 1.0453295.41066564 1.82.616.7746706.20533436 1.7873271.46666508 3.038.784.3733352.07466704.8913301.20999902 1.554.406.66267.19600098 1.3206634.50866452 1.974.938.6533366.4293355 1.2179977 1.0033297 1.694 1.722.4760024.7186703.714 1.6379944.714 2.758 0 .9146712-.1773315 1.7639961-.532 2.548-.3546684.7840039-.8819965 1.4606638-1.582 2.03s-1.5679948 1.0126651-2.604 1.33c-1.0360051.3173349-2.2353265.476-3.598.476-1.1013388 0-2.1699948-.135332-3.206-.406-1.0360051-.270668-1.9506627-.6953304-2.744-1.274s-1.423331-1.3159955-1.89-2.212-.6906667-1.9599938-.672-3.192zm18.844-10.08h-3.976v-3.276h3.976zm-3.976 2.24h3.976v14.476h-3.976zm7.98 2.66h-2.38v-2.66h2.38v-1.12c0-1.28800644.4013294-2.34266256 1.204-3.164.8026707-.82133744 2.0159919-1.232 3.64-1.232.3546685 0 .7093316.01399986 1.064.042.3546685.02800014.6999984.05133324 1.036.07v2.968c-.466669-.05600028-.9519974-.084-1.456-.084-.541336 0-.9286655.12599874-1.162.378s-.35.67666368-.35 1.274v.868h2.744v2.66h-2.744v11.816h-3.976zm14.596 13.608c-.4293354 1.1760059-1.0266628 2.0159975-1.792 2.52-.7653371.5040025-1.8293265.756-3.192.756-.4106687 0-.8166646-.0139999-1.218-.042-.4013353-.0280001-.8073312-.0606665-1.218-.098v-3.276c.3733352.0373335.7559981.0746665 1.148.112.392002.0373335.7839981.0466668 1.176.028.5226693-.0560003.9099988-.2613316 1.162-.616.2520013-.3546684.378-.7466645.378-1.176 0-.3173349-.0559994-.6159986-.168-.896l-5.068-13.58h4.228l3.276 9.912h.056l3.164-9.912h4.116z" fill="#171c34"/><path d="m27.9633014 31.2611465c.5394475 0 1.0278588.1185409 1.4652486.3556263.4373899.2370854.7800068.571477 1.027861 1.0031847.2478543.4317078.3717795.9235642.3717795 1.4755839s-.1239252 1.0438761-.3717795 1.4755839c-.2478542.4317077-.5904711.7678685-1.027861 1.0084925-.4373898.240624-.9258011.3609342-1.4652486.3609342-.4811289 0-.9130448-.099079-1.295761-.2972399-.3827161-.1981609-.6907068-.4847823-.9239814-.8598726v1.104034h-.743559v-7.8768578h.7763631v3.3545648c.2405644-.360936.5485551-.6351725.9239814-.8227177.3754263-.1875451.7964077-.2813163 1.2629569-.2813163zm-.0546735 5.0106157c.4009407 0 .7654268-.0902326 1.0934692-.2707006.3280423-.180468.585005-.4370118.7708957-.7696391s.2788346-.7112505.2788346-1.1358811-.0929439-.8032538-.2788346-1.1358811-.4428534-.5891711-.7708957-.7696391c-.3280424-.180468-.6925285-.2707006-1.0934692-.2707006-.4082305 0-.774539.0902326-1.0989365.2707006-.3243974.180468-.5795377.4370118-.7654284.7696391s-.2788346.7112505-.2788346 1.1358811.0929439.8032538.2788346 1.1358811.441031.5891711.7654284.7696391c.3243975.180468.690706.2707006 1.0989365.2707006zm9.3382265-4.9681529-2.8758238 6.252654c-.2332746.523711-.5029943.8952572-.8091672 1.1146497-.3061729.2193924-.6743038.329087-1.1044038.329087-.2770136 0-.5357987-.0424624-.7763631-.1273885s-.4483215-.2123134-.6232774-.3821656l.3608448-.5626327c.2915932.283087.6414998.4246284 1.0497303.4246284.262434 0 .4865929-.0707707.6724836-.2123142s.3590215-.3821639.5193978-.7218684l.2514979-.5414013-2.5696525-5.5732484h.8091672l2.1650689 4.745223 2.1650689-4.745223zm6.9872678-1.8471337c.9768373 0 1.7422581.2264662 2.2962852.6794055.5540272.4529393.8310366 1.0757214.8310366 1.8683652 0 .7926437-.2770094 1.4136566-.8310366 1.8630573-.5540271.4494007-1.3194479.6740977-2.2962852.6740977h-2.055722v2.3460722h-.8091671v-7.4309979zm-.0218694 4.3949044c.7581424 0 1.3376753-.1610033 1.738616-.4830148s.601408-.7767133.601408-1.3641189c0-.60156-.2004673-1.0633388-.601408-1.3853503-.4009407-.3220116-.9804736-.4830149-1.738616-.4830149h-2.0338526v3.7154989zm5.5876274-1.4543524c.1822457-.3750903.4537879-.6581731.8146345-.8492569s.807342-.2866242 1.3394997-.2866242v.7324841l-.1858898-.0106157c-.6050559 0-1.0788878.1804652-1.4215099.5414012-.342622.360936-.5139305.8669465-.5139305 1.5180467v2.8450107h-.776363v-5.5838642h.743559zm5.9922109 4.5435244c-.5540272 0-1.0533731-.1220794-1.4980528-.366242-.4446796-.2441626-.7945863-.5820927-1.0497303-1.0138004-.2551441-.4317078-.3827142-.9200256-.3827142-1.4649682s.1275701-1.0332604.3827142-1.4649682c.255144-.4317077.6050507-.7678685 1.0497303-1.0084925.4446797-.240624.9440256-.3609342 1.4980528-.3609342.5540271 0 1.053373.1203102 1.4980527.3609342s.7927639.5767848 1.044263 1.0084925c.2514992.4317078.3772469.9200256.3772469 1.4649682s-.1257477 1.0332604-.3772469 1.4649682c-.2514991.4317077-.5995833.7696378-1.044263 1.0138004s-.9440256.366242-1.4980527.366242zm0-.6687898c.4082305 0 .774539-.0902326 1.0989365-.2707006.3243974-.180468.5777152-.4370118.759961-.7696391s.2733673-.7112505.2733673-1.1358811-.0911215-.8032538-.2733673-1.1358811-.4355636-.5891711-.759961-.7696391c-.3243975-.180468-.690706-.2707006-1.0989365-.2707006s-.774539.0902326-1.0989365.2707006-.5795377.4370118-.7654284.7696391-.2788346.7112505-.2788346 1.1358811.0929439.8032538.2788346 1.1358811.4410309.5891711.7654284.7696391.690706.2707006 1.0989365.2707006zm3.6521869 2.7282378c-.2405644 0-.4683682-.0300775-.6834182-.0902335s-.3918258-.1503887-.5303325-.2707007l.2733672-.5732484c.2259848.1910838.5248634.2866242.8966447.2866242.3061729 0 .5412665-.0884634.7052876-.2653928.1640212-.1769294.2460306-.438781.2460306-.7855626v-5.9978769h.7763631v5.9978769c0 .523711-.1457944.9377196-.4373877 1.2420382-.2915932.3043186-.7071073.4564756-1.2465548.4564756zm1.3012283-8.9278132c-.1603763 0-.2952361-.053078-.4045836-.1592356-.1093475-.1061577-.1640204-.2335449-.1640204-.3821656 0-.1415436.0546729-.2653923.1640204-.3715499.1093475-.1061577.2442073-.1592357.4045836-.1592357s.2952361.0513088.4045836.1539278c.1093474.1026191.1640203.2246985.1640203.3662421 0 .1556978-.0546729.2866236-.1640203.3927813-.1093475.1061576-.2442073.1592356-.4045836.1592356zm7.5558718 4.2569002h-4.8112643c.043739.5803285.2733652 1.0491844.6888856 1.4065818s.9403803.5360934 1.5745956.5360934c.3572017 0 .6852391-.0619244.9841222-.1857749.2988831-.1238506.5576682-.3060852.7763631-.5467092l.4373876.4883227c-.255144.2972415-.5740693.5237077-.9567855.6794056-.3827161.1556978-.8036975.2335456-1.2629568.2335456-.5904763 0-1.1135138-.1220794-1.5691282-.366242-.4556145-.2441626-.8109884-.5820927-1.0661325-1.0138004-.255144-.4317078-.3827142-.9200256-.3827142-1.4649682s.1221029-1.0332604.3663122-1.4649682c.2442093-.4317077.5795365-.7678685 1.0059916-1.0084925s.9057543-.3609342 1.4379119-.3609342c.5321577 0 1.0096344.1203102 1.4324446.3609342s.7544925.5750155.9950569 1.0031847c.2405645.4281692.3608449.9182563.3608449 1.470276zm-2.7774117-2.4203821c-.5540271 0-1.0187468.1716189-1.3941731.514862-.3754263.343243-.5886506.7908677-.6396795 1.3428875h4.0786399c-.0510288-.5520198-.2642531-.9996445-.6396794-1.3428875-.3754263-.3432431-.8437909-.514862-1.4051079-.514862zm6.7576394 5.0318471c-.5686068 0-1.0770649-.1203102-1.5253895-.3609342s-.8000537-.5785541-1.0551977-1.0138004c-.2551441-.4352463-.3827142-.9253334-.3827142-1.470276s.1275701-1.0332604.3827142-1.4649682c.255144-.4317077.6068731-.7678685 1.0551977-1.0084925s.9567827-.3609342 1.5253895-.3609342c.4957084 0 .938559.0937712 1.328565.2813163.3900059.1875452.6979966.4617817.9239814.8227177l-.5795387.3821656c-.1895356-.2760099-.4300964-.4830142-.7216896-.6210191-.2915932-.138005-.6086961-.2070064-.9513181-.2070064-.4155204 0-.7891186.0902326-1.1208059.2707006s-.5904724.4370118-.7763631.7696391-.2788346.7112505-.2788346 1.1358811c0 .4317078.0929439.8121003.2788346 1.141189s.4446758.5838632.7763631.7643312.7052855.2707006 1.1208059.2707006c.342622 0 .6597249-.0672322.9513181-.2016985.2915932-.1344664.532154-.3397014.7216896-.6157113l.5795387.3821656c-.2259848.360936-.5357979.6351725-.9294488.8227177-.3936508.1875451-.834679.2813163-1.3230976.2813163zm6.801378-.3927813c-.1457966.1273892-.3262172.2246989-.5412672.2919321-.21505.0672331-.4392089.1008492-.6724835.1008492-.5394475 0-.9549616-.1415414-1.2465548-.4246284-.2915933-.2830871-.4373877-.6829415-.4373877-1.1995754v-3.3757962h-1.027861v-.6369427h1.027861v-1.2208068h.7763631v1.2208068h1.7495506v.6369427h-1.7495506v3.3333334c0 .3326272.0856542.5856325.2569652.7590233.1713111.1733908.4173392.2600849.7380917.2600849.1603763 0 .3152829-.0247697.4647244-.0743099.1494415-.0495403.2788341-.120311.3881815-.2123143zm3.4991013-3.9065817c.8018814.042463 1.4123955.2530059 1.8315608.6316348s.6287448.8722545.6287448 1.4808917c0 .4246306-.105701.8014846-.3171061 1.1305732-.2114051.3290887-.5248631.5891711-.9403835.7802548-.4155203.1910838-.922156.2866242-1.5199221.2866242-.5540271 0-1.0770646-.0866941-1.5691282-.2600849s-.887531-.4051649-1.186414-.6953291l.3827142-.6050955c.2551441.2547783.5941161.4617826 1.0169263.6210191.4228102.1592364.8747729.2388535 1.3559017.2388535.6269255 0 1.1116919-.1326951 1.454314-.3980892.342622-.2653941.5139305-.6316325.5139305-1.0987261 0-.4600165-.1713085-.820947-.5139305-1.0828025-.3426221-.2618556-.8601923-.3927814-1.5527262-.3927814h-.5467346v-.5626327l2.1213302-2.5796178h-3.9146196v-.6794055h4.9206112v.5414013zm6.7357699-.2016986c.5029983 0 .9494938.092002 1.3394997.2760085.3900059.1840066.6943518.4440889.9130467.7802548.218695.3361659.3280408.727174.3280408 1.1730361 0 .4529393-.1129907.8527937-.3389755 1.1995754-.2259847.3467816-.5376203.613941-.9349161.8014862-.3972957.1875451-.8437912.2813163-1.3394997.2813163-1.0132864 0-1.7896418-.3237759-2.3290892-.9713376-.5394475-.6475616-.8091672-1.5622729-.8091672-2.7441613 0-.8280296.1457944-1.5286596.4373876-2.1019108.2915933-.5732513.6998177-1.0067219 1.2246855-1.3004247s1.1372044-.440552 1.8370281-.440552c.7581424 0 1.3631893.1344643 1.8151588.403397l-.317106.6157113c-.3644916-.2335468-.8601926-.3503185-1.4871181-.3503185-.8456203 0-1.508985.2600824-1.9901138.7802548-.4811288.5201725-.7216896 1.2756497-.7216896 2.2664544 0 .1769294.0109345.3786259.032804.6050955.1895356-.403399.4920591-.7165594.9075794-.9394904.4155204-.2229311.8929971-.334395 1.4324446-.334395zm-.0656081 3.8641189c.5540271 0 1.0041674-.1468492 1.3504343-.440552.346267-.2937028.5193979-.6847109.5193979-1.1730361 0-.4883251-.1731309-.877564-.5193979-1.1677282-.3462669-.2901642-.8146315-.4352442-1.4051078-.4352442-.386361 0-.7271555.0707707-1.0223937.2123143-.2952381.1415435-.5266868.3361629-.6943529.5838641-.1676661.2477011-.2514979.5237069-.2514979.8280255 0 .283087.0783645.5449386.2350959.7855626s.38818.4352434.6943529.5838641.670659.2229299 1.0934692.2229299zm5.5657579-3.8004246c1.1080543 0 1.9153909.1928502 2.4220341.5785563.5066433.3857061.7599611.9253327.7599611 1.6188959 0 .4317078-.1038785.8174081-.3116387 1.1571126-.2077602.3397044-.5193958.6068638-.9349161.8014862-.4155204.1946223-.9258009.291932-1.5308568.291932-.5467373 0-1.06613-.0866941-1.5581936-.2600849-.4920635-.1733908-.8875309-.4051649-1.186414-.6953291l.3827142-.6050955c.2551441.2547783.5904713.4617826 1.0059916.6210191.4155204.1592364.8638383.2388535 1.3449671.2388535.6342153 0 1.124449-.1380029 1.470716-.4140128.3462669-.2760098.5193978-.6440175.5193978-1.1040339 0-.5095567-.195-.895257-.585006-1.1571126-.3900059-.2618555-1.0479033-.3927813-1.9737118-.3927813h-1.629269l.3936489-3.7261146h4.1879868v.6794055h-3.4991012l-.2624326 2.3673036z" fill="#b0afc6"/></g><g fill-rule="nonzero" transform=""><path d="m23.1832704 18.7208517-9.7401193-17.49009318c-.4569966-.82043565-1.0593725-1.23075852-1.6619183-1.23075852-.6025467 0-1.2049226.41032287-1.6619184 1.23075852l-9.73973525 17.49009318c-.91399299 1.6408812-.11984967 2.983808 1.76463443 2.983808h19.27446592c1.8844408 0 2.6785842-1.3429268 1.7645909-2.983808zm-17.61233298-.8547436c-.23657226 0-.42834052-.1910367-.42834052-.4265623s.19176826-.4265623.42834052-.4265623c.23631572 0 .42812647.1910367.42812647.4265623s-.19181075.4265623-.42812647.4265623zm6.37156518-10.8835654-4.71157413 8.5300148c-.07778689.1413069-.22440802.2209928-.37561167.2209928-.06986242 0-.14053861-.0168735-.20603217-.0528395-.2072311-.1133956-.28296162-.3728693-.16876621-.5790775l4.71153128-8.53022692c.1137673-.20642075.3747979-.28214523.5816438-.16789777.207274.11339488.2830046.37265599.1688091.57903409z" fill="#1892eb"/><path d="m26.3431396 5.53977273c-2.7128914 0-5.218302.88159091-7.2449946 2.37102238l5.5820476 10.01420459c.7374309 1.3229402.7903738 2.7070316.1451261 3.7971317-.6454275 1.0900985-1.8875715 1.7153686-3.4083058 1.7153686h-5.8269337c2.061392 3.8054824 6.1032135 6.3920455 10.7530604 6.3920455 6.7421654 0 12.2074939-5.4374148 12.2074939-12.1448864 0-6.7072587-5.4653285-12.14488637-12.2074939-12.14488637z" fill="#0074e4"/></g></g></svg>