<svg height="80" viewBox="0 0 77 80" width="77" xmlns="http://www.w3.org/2000/svg"><g fill="none" transform=""><path d="m76.835071 37.4257557c-.1826473-20.8490269-17.2263076-37.60347827-38.0704559-37.42426502-21.0274581 0-38.76395273 16.75527952-38.76395273 37.42443062v10.6086957h15.89677423v19.8757764h25.1712172v11.9254658h35.7664172z" fill="#0074e4"/><path d="m43.9037441 7.16074534c11.0984322 10.90252586 11.8566753 19.08770186 0 30.47619046-11.0984323-10.9025259-11.8565097-19.0870393 0-30.47619046z" fill="#fff" opacity=".6"/><path d="m23.858243 15.8718012c15.5551592-.1404554 21.8777699 5.1112216 21.5447656 21.5499793-15.5551591.1402899-21.8772731-5.1107246-21.5447656-21.5499793z" fill="#072a44"/><path d="m13.2479742 38.7592547c-3.65642366-.0043065-6.61935054-2.9679504-6.62365592-6.6252588h2.64946237c0 2.1954451 1.77927955 3.9751552 3.97419355 3.9751552s3.9741935-1.7797101 3.9741935-3.9751552h2.6494624c-.0043054 3.6571428-2.9672323 6.6209523-6.6236559 6.6252588z" fill="#fff"/><path d="m65.2739763 15.8718012c.1404215 15.5589234-5.1099849 21.8830642-21.5447655 21.5499793-.1404216-15.559089 5.1094881-21.8827329 21.5447655-21.5499793z" fill="#18baeb"/></g></svg>