<svg height="79" viewBox="0 0 80 79" width="80" xmlns="http://www.w3.org/2000/svg"><g fill="none" transform=""><g fill="#0074e4" transform="translate(0 34.167501)"><path d="m79.8168815 5.03921357c-.0026611-2.78103745-1.6380873-5.03379276-3.9692308-5.03379276h-.2551351c-2.2864033.19137085-4.0741788 2.02803829-4.1776299 4.29196375l-3.550603 18.04832524.0003327.0914966c-1.0511435-.6769436-2.4136383-.6534534-3.4401663.0596289l-10.0394179 6.9747696c-.7253223.5039707-1.1570894 1.3251406-1.1570894 2.2010113v13.0133826h13.3056133v-2.3840045l9.3485239-5.8781243c2.5884408-1.9222504 4.0651975-4.9700572 3.9570894-8.1666897z"/><path d="m.02794179 5.03921357c.00266112-2.78103745 1.63808732-5.03379276 3.96923077-5.03379276h.25513513c2.28640333.19137085 4.0741788 2.02803829 4.17762994 4.29196375l3.55060287 18.04832524-.0003326.0914966c1.0511435-.6769436 2.4136383-.6534534 3.4401663.0596289l10.0394179 6.9747696c.7253222.5039707 1.1570894 1.3251406 1.1570894 2.2010113v13.0133826h-13.3056133v-2.3840045l-9.34852392-5.8781243c-2.58844075-1.9222504-4.0651975-4.9702215-3.95725571-8.166854z"/></g><ellipse cx="39.922329" cy="40.743595" fill="#072a44" rx="22.619543" ry="22.340289"/><g fill="#18baeb"><ellipse cx="59.880748" cy="15.775037" rx="6.652807" ry="6.570673"/><ellipse cx="19.963908" cy="15.775037" rx="6.652807" ry="6.570673"/><ellipse cx="39.922328" cy="6.576094" rx="6.652807" ry="6.570673"/></g><path d="m25.8183784 38.1153256h-3.1933472c.0101455-8.7051565 7.1527651-15.7595955 15.966736-15.7696158v3.1539232c-7.0511435.008049-12.7652391 5.6516003-12.7733888 12.6156926z" fill="#fff"/></g></svg>