<svg height="10" viewBox="0 0 10 10" width="10" xmlns="http://www.w3.org/2000/svg"><path d="m5 41c.69010762 0 1.33951519.130207 1.94824219.390625s1.13932065.6168597 1.59179687 1.0693359c.45247622.4524763.80891797.9830699 1.06933594 1.5917969s.390625 1.2581346.390625 1.9482422-.13020703 1.3395152-.390625 1.9482422-.61685972 1.1393206-1.06933594 1.5917969c-.45247622.4524762-.98306987.8089179-1.59179687 1.0693359s-1.25813457.390625-1.94824219.390625-1.33951519-.130207-1.94824219-.390625-1.13932065-.6168597-1.59179687-1.0693359c-.45247622-.4524763-.80891797-.9830699-1.06933594-1.5917969s-.390625-1.2581346-.390625-1.9482422.13020703-1.3395152.390625-1.9482422.61685972-1.1393206 1.06933594-1.5917969c.45247622-.4524762.98306987-.8089179 1.59179687-1.0693359s1.25813457-.390625 1.94824219-.390625zm0 9.3847656c.60547178 0 1.17349995-.1155587 1.70410156-.3466797.53060161-.2311209.99283657-.5452454 1.38671875-.9423828s.70637906-.8609999.9375-1.3916015c.23112095-.5306016.34667969-1.0986298.34667969-1.7041016s-.11555874-1.1735-.34667969-1.7041016c-.23112094-.5306016-.54361782-.9928365-.9375-1.3867187s-.85611714-.7063791-1.38671875-.9375c-.53060161-.231121-1.09862978-.3466797-1.70410156-.3466797s-1.17349995.1155587-1.70410156.3466797c-.53060161.2311209-.99283657.5436178-1.38671875.9375s-.70637906.8561171-.9375 1.3867187c-.23112095.5306016-.34667969 1.0986298-.34667969 1.7041016s.11555874 1.1735.34667969 1.7041016c.23112094.5306016.54361782.9944641.9375 1.3916015s.85611714.7112619 1.38671875.9423828c.53060161.231121 1.09862978.3466797 1.70410156.3466797zm1.76757812-6.1523437c.05859405.058594.08789063.1318355.08789063.2197265 0 .0878911-.02929658.1611326-.08789063.2197266l-1.328125 1.328125 1.328125 1.328125c.05859405.058594.08789063.1318355.08789063.2197266 0 .087891-.02929658.1611325-.08789063.2197265-.05859404.0585941-.13183549.0878907-.21972656.0878907-.08789106 0-.16113252-.0292966-.21972656-.0878907l-1.328125-1.328125-1.328125 1.328125c-.05859404.0585941-.1318355.0878907-.21972656.0878907-.08789107 0-.16113252-.0292966-.21972656-.0878907-.05859405-.058594-.08789063-.1318355-.08789063-.2197265 0-.0878911.02929658-.1611326.08789063-.2197266l1.328125-1.328125-1.328125-1.328125c-.05859405-.058594-.08789063-.1318355-.08789063-.2197266 0-.087891.02929658-.1611325.08789063-.2197265.05859404-.0585941.13183549-.0878907.21972656-.0878907.08789106 0 .16113252.0292966.21972656.0878907l1.328125 1.328125 1.328125-1.328125c.05859404-.0585941.1318355-.0878907.21972656-.0878907.08789107 0 .16113252.0292966.21972656.0878907z" fill="#d03602" fill-rule="evenodd" transform="translate(0 -41)"/></svg>