<svg height="80" viewBox="0 0 80 80" width="80" xmlns="http://www.w3.org/2000/svg"><g fill="none"><path d="M40 45.333C17.909 45.333 0 60.854 0 80h80c0-19.146-17.909-34.667-40-34.667z" fill="#0074e4"/><path d="M24.828 74.222c-4.564 0-8.276-3.24-8.276-7.222h2.758c0 2.39 2.475 4.333 5.518 4.333S30.345 69.39 30.345 67h2.759c0 3.982-3.713 7.222-8.276 7.222zM55.172 74.222c-4.563 0-8.275-3.24-8.275-7.222h2.758c0 2.39 2.475 4.333 5.517 4.333S60.69 69.39 60.69 67h2.758c0 3.982-3.712 7.222-8.276 7.222z" fill="#fff"/><circle cx="56" cy="38.667" fill="#18baeb" r="4"/><circle cx="24" cy="38.667" fill="#072a44" r="4"/><path d="M34.63 14.667A6.642 6.642 0 0 0 27.242 3.64a6.615 6.615 0 0 0-11.818 0 6.643 6.643 0 0 0-7.387 11.026 6.642 6.642 0 0 0 7.387 11.025 6.615 6.615 0 0 0 11.818 0 6.643 6.643 0 0 0 7.388-11.025z" fill="#072a44"/><path d="M71.963 14.667A6.642 6.642 0 0 0 64.576 3.64a6.615 6.615 0 0 0-11.818 0 6.643 6.643 0 0 0-7.388 11.026 6.642 6.642 0 0 0 7.388 11.025 6.615 6.615 0 0 0 11.818 0 6.643 6.643 0 0 0 7.387-11.025z" fill="#18baeb"/><g fill="#fff"><path d="M12 8h2.667v13.333H12zM17.333 10.667H20v10.666h-2.667zM22.667 14.667h2.666v6.666h-2.666zM28 17.333h2.667v4H28zM65.333 8H68v13.333h-2.667zM60 10.667h2.667v10.666H60zM54.667 14.667h2.666v6.666h-2.666zM49.333 17.333H52v4h-2.667z"/></g></g></svg>