<svg height="39" viewBox="0 0 143 39" width="143" xmlns="http://www.w3.org/2000/svg"><g fill="none" fill-rule="evenodd"><path d="M48.257 13.832c0 .672.121 1.241.364 1.708s.565.845.966 1.134.873.504 1.414.644 1.101.21 1.68.21c.392 0 .812-.033 1.26-.098a4.384 4.384 0 0 0 1.26-.378c.392-.187.719-.443.98-.77s.392-.742.392-1.246c0-.541-.173-.98-.518-1.316-.345-.336-.798-.616-1.358-.84s-1.195-.42-1.904-.588-1.428-.355-2.156-.56c-.747-.187-1.475-.415-2.184-.686s-1.344-.62-1.904-1.05c-.56-.43-1.013-.966-1.358-1.61s-.518-1.423-.518-2.338c0-1.027.22-1.918.658-2.674s1.013-1.386 1.722-1.89 1.512-.877 2.408-1.12A10.243 10.243 0 0 1 52.15 0c1.045 0 2.049.117 3.01.35.961.233 1.815.611 2.562 1.134s1.34 1.19 1.778 2.002c.439.812.658 1.797.658 2.954h-4.256c-.037-.597-.163-1.092-.378-1.484-.215-.392-.5-.7-.854-.924-.355-.224-.76-.383-1.218-.476s-.957-.14-1.498-.14c-.355 0-.71.037-1.064.112s-.677.205-.966.392-.527.42-.714.7-.28.635-.28 1.064c0 .392.075.71.224.952s.443.467.882.672 1.045.41 1.82.616 1.787.467 3.038.784c.373.075.891.21 1.554.406.663.196 1.32.509 1.974.938.653.43 1.218 1.003 1.694 1.722.476.719.714 1.638.714 2.758 0 .915-.177 1.764-.532 2.548-.355.784-.882 1.46-1.582 2.03s-1.568 1.013-2.604 1.33c-1.036.317-2.235.476-3.598.476-1.101 0-2.17-.135-3.206-.406s-1.95-.695-2.744-1.274-1.423-1.316-1.89-2.212c-.467-.896-.69-1.96-.672-3.192zm14.588-3.388c.056-.933.29-1.708.7-2.324.41-.616.933-1.11 1.568-1.484.635-.373 1.349-.64 2.142-.798S68.846 5.6 69.65 5.6c.728 0 1.465.051 2.212.154s1.428.303 2.044.602c.616.299 1.12.714 1.512 1.246.392.532.588 1.237.588 2.114v7.532c0 .653.037 1.279.112 1.876.075.597.205 1.045.392 1.344h-4.032a5.706 5.706 0 0 1-.28-1.4 5.181 5.181 0 0 1-2.24 1.372 8.99 8.99 0 0 1-2.632.392 7.11 7.11 0 0 1-1.932-.252 4.425 4.425 0 0 1-1.568-.784 3.65 3.65 0 0 1-1.05-1.344c-.252-.541-.378-1.185-.378-1.932 0-.821.145-1.498.434-2.03.29-.532.663-.957 1.12-1.274.457-.317.98-.555 1.568-.714.588-.159 1.18-.285 1.778-.378a30.39 30.39 0 0 1 1.764-.224c.579-.056 1.092-.14 1.54-.252.448-.112.803-.275 1.064-.49.261-.215.383-.527.364-.938 0-.43-.07-.77-.21-1.022s-.327-.448-.56-.588-.504-.233-.812-.28a6.644 6.644 0 0 0-.994-.07c-.784 0-1.4.168-1.848.504-.448.336-.71.896-.784 1.68zm9.184 2.94c-.168.15-.378.266-.63.35a6.434 6.434 0 0 1-.812.21c-.29.056-.593.103-.91.14-.317.037-.635.084-.952.14a7.18 7.18 0 0 0-.882.224c-.29.093-.541.22-.756.378-.215.159-.387.36-.518.602-.13.243-.196.55-.196.924 0 .355.065.653.196.896.13.243.308.434.532.574.224.14.485.238.784.294.299.056.607.084.924.084.784 0 1.39-.13 1.82-.392.43-.261.747-.574.952-.938.205-.364.331-.733.378-1.106s.07-.672.07-.896zm6.888-2.94c.056-.933.29-1.708.7-2.324.41-.616.933-1.11 1.568-1.484.635-.373 1.349-.64 2.142-.798s1.591-.238 2.394-.238c.728 0 1.465.051 2.212.154s1.428.303 2.044.602c.616.299 1.12.714 1.512 1.246.392.532.588 1.237.588 2.114v7.532c0 .653.037 1.279.112 1.876.075.597.205 1.045.392 1.344H88.55a5.706 5.706 0 0 1-.28-1.4 5.181 5.181 0 0 1-2.24 1.372 8.99 8.99 0 0 1-2.632.392 7.11 7.11 0 0 1-1.932-.252 4.425 4.425 0 0 1-1.568-.784 3.65 3.65 0 0 1-1.05-1.344c-.252-.541-.378-1.185-.378-1.932 0-.821.145-1.498.434-2.03.29-.532.663-.957 1.12-1.274.457-.317.98-.555 1.568-.714.588-.159 1.18-.285 1.778-.378a30.39 30.39 0 0 1 1.764-.224c.579-.056 1.092-.14 1.54-.252.448-.112.803-.275 1.064-.49.261-.215.383-.527.364-.938 0-.43-.07-.77-.21-1.022s-.327-.448-.56-.588-.504-.233-.812-.28a6.644 6.644 0 0 0-.994-.07c-.784 0-1.4.168-1.848.504-.448.336-.71.896-.784 1.68zm9.184 2.94c-.168.15-.378.266-.63.35a6.434 6.434 0 0 1-.812.21c-.29.056-.593.103-.91.14-.317.037-.635.084-.952.14a7.18 7.18 0 0 0-.882.224c-.29.093-.541.22-.756.378-.215.159-.387.36-.518.602-.13.243-.196.55-.196.924 0 .355.065.653.196.896.13.243.308.434.532.574.224.14.485.238.784.294.299.056.607.084.924.084.784 0 1.39-.13 1.82-.392.43-.261.747-.574.952-.938.205-.364.331-.733.378-1.106s.07-.672.07-.896zm10.472.448c0 .672.121 1.241.364 1.708.243.467.565.845.966 1.134.401.29.873.504 1.414.644.541.14 1.101.21 1.68.21.392 0 .812-.033 1.26-.098a4.384 4.384 0 0 0 1.26-.378c.392-.187.719-.443.98-.77s.392-.742.392-1.246c0-.541-.173-.98-.518-1.316-.345-.336-.798-.616-1.358-.84s-1.195-.42-1.904-.588a52.606 52.606 0 0 1-2.156-.56 19.144 19.144 0 0 1-2.184-.686 7.504 7.504 0 0 1-1.904-1.05 4.945 4.945 0 0 1-1.358-1.61c-.345-.644-.518-1.423-.518-2.338 0-1.027.22-1.918.658-2.674a5.962 5.962 0 0 1 1.722-1.89 7.504 7.504 0 0 1 2.408-1.12A10.243 10.243 0 0 1 102.465 0c1.045 0 2.049.117 3.01.35.961.233 1.815.611 2.562 1.134s1.34 1.19 1.778 2.002c.439.812.658 1.797.658 2.954h-4.256c-.037-.597-.163-1.092-.378-1.484-.215-.392-.5-.7-.854-.924a3.61 3.61 0 0 0-1.218-.476 7.498 7.498 0 0 0-1.498-.14c-.355 0-.71.037-1.064.112a2.846 2.846 0 0 0-.966.392c-.29.187-.527.42-.714.7s-.28.635-.28 1.064c0 .392.075.71.224.952.15.243.443.467.882.672.439.205 1.045.41 1.82.616.775.205 1.787.467 3.038.784.373.075.891.21 1.554.406.663.196 1.32.509 1.974.938.653.43 1.218 1.003 1.694 1.722.476.719.714 1.638.714 2.758 0 .915-.177 1.764-.532 2.548-.355.784-.882 1.46-1.582 2.03s-1.568 1.013-2.604 1.33c-1.036.317-2.235.476-3.598.476a12.63 12.63 0 0 1-3.206-.406c-1.036-.27-1.95-.695-2.744-1.274s-1.423-1.316-1.89-2.212-.69-1.96-.672-3.192zm18.844-10.08h-3.976V.476h3.976zm-3.976 2.24h3.976v14.476h-3.976zm7.98 2.66h-2.38v-2.66h2.38v-1.12c0-1.288.401-2.343 1.204-3.164.803-.821 2.016-1.232 3.64-1.232.355 0 .71.014 1.064.042.355.028.7.051 1.036.07v2.968a12.22 12.22 0 0 0-1.456-.084c-.541 0-.929.126-1.162.378s-.35.677-.35 1.274v.868h2.744v2.66h-2.744v11.816h-3.976zm14.596 13.608c-.43 1.176-1.027 2.016-1.792 2.52-.765.504-1.83.756-3.192.756-.41 0-.817-.014-1.218-.042-.401-.028-.807-.06-1.218-.098V22.12c.373.037.756.075 1.148.112a8.25 8.25 0 0 0 1.176.028c.523-.056.91-.261 1.162-.616.252-.355.378-.747.378-1.176a2.39 2.39 0 0 0-.168-.896l-5.068-13.58h4.228l3.276 9.912h.056l3.164-9.912h4.116z" fill="#171c34"/><path d="M71.963 31.261c.54 0 1.028.119 1.466.356.437.237.78.571 1.027 1.003.248.432.372.924.372 1.476s-.124 1.043-.372 1.475c-.247.432-.59.768-1.027 1.009-.438.24-.926.36-1.466.36-.48 0-.913-.099-1.295-.297a2.339 2.339 0 0 1-.924-.86v1.104H69v-7.876h.776v3.354c.24-.36.549-.635.924-.823a2.787 2.787 0 0 1 1.263-.28zm-.054 5.01c.4 0 .765-.09 1.093-.27.328-.18.585-.437.771-.77s.279-.71.279-1.135-.093-.804-.279-1.136-.443-.59-.77-.77a2.23 2.23 0 0 0-1.094-.27c-.409 0-.775.09-1.1.27-.324.18-.579.437-.765.77s-.279.71-.279 1.136.093.803.28 1.135.44.59.765.77c.324.18.69.27 1.099.27zm9.338-4.967l-2.876 6.252c-.233.524-.503.896-.81 1.115-.305.22-.673.329-1.104.329-.277 0-.535-.042-.776-.127s-.448-.213-.623-.383l.36-.562c.292.283.642.424 1.05.424.263 0 .487-.07.673-.212s.359-.382.52-.722l.25-.541-2.569-5.573h.81l2.164 4.745 2.165-4.745zm6.987-1.848c.977 0 1.742.227 2.296.68.554.453.831 1.076.831 1.868 0 .793-.277 1.414-.83 1.863-.555.45-1.32.674-2.297.674h-2.056v2.346h-.809v-7.43zm-.022 4.395c.758 0 1.338-.16 1.739-.483s.601-.776.601-1.364c0-.601-.2-1.063-.601-1.385-.401-.322-.98-.483-1.739-.483h-2.034v3.715zm5.588-1.454c.182-.375.454-.658.815-.85s.807-.286 1.339-.286v.733l-.186-.011c-.605 0-1.079.18-1.421.541-.343.361-.514.867-.514 1.518v2.845h-.777v-5.583h.744zm5.992 4.544a3.06 3.06 0 0 1-1.498-.367 2.713 2.713 0 0 1-1.05-1.013c-.255-.432-.382-.92-.382-1.465s.127-1.034.382-1.465a2.675 2.675 0 0 1 1.05-1.009c.445-.24.944-.36 1.498-.36s1.053.12 1.498.36.793.577 1.044 1.009c.252.431.378.92.378 1.465s-.126 1.033-.378 1.465c-.251.431-.6.77-1.044 1.013s-.944.367-1.498.367zm0-.67c.408 0 .775-.09 1.099-.27.324-.18.578-.437.76-.77s.273-.71.273-1.135-.09-.804-.273-1.136-.436-.59-.76-.77c-.324-.18-.69-.27-1.099-.27s-.774.09-1.099.27-.58.437-.765.77-.28.71-.28 1.136.094.803.28 1.135.44.59.765.77.69.27 1.1.27zM103.444 39c-.24 0-.468-.03-.683-.09s-.392-.15-.53-.27l.273-.574c.226.19.525.286.897.286.306 0 .54-.088.705-.265.164-.177.246-.439.246-.786v-5.997h.776V37.3c0 .524-.146.938-.437 1.243-.292.304-.707.456-1.247.456zm1.302-8.928a.558.558 0 0 1-.405-.159.514.514 0 0 1 0-.754c.11-.106.244-.159.405-.159s.295.051.404.154c.11.103.164.225.164.366a.526.526 0 0 1-.164.393.558.558 0 0 1-.404.16zm7.555 4.257h-4.81c.043.58.272 1.05.688 1.407s.94.536 1.575.536c.357 0 .685-.062.984-.186.299-.124.557-.306.776-.547l.437.489a2.46 2.46 0 0 1-.956.679 3.321 3.321 0 0 1-1.263.234c-.59 0-1.114-.123-1.57-.367a2.684 2.684 0 0 1-1.066-1.013c-.255-.432-.382-.92-.382-1.465s.122-1.034.366-1.465c.244-.432.58-.768 1.006-1.009s.906-.36 1.438-.36c.532 0 1.01.12 1.432.36s.755.575.995 1.003c.241.428.361.919.361 1.47zm-2.777-2.42c-.554 0-1.019.171-1.394.515-.376.343-.589.79-.64 1.342h4.079c-.051-.552-.264-1-.64-1.342-.375-.344-.844-.515-1.405-.515zm6.758 5.032c-.569 0-1.077-.12-1.526-.361s-.8-.579-1.055-1.014c-.255-.435-.383-.926-.383-1.47s.128-1.034.383-1.465c.255-.432.607-.768 1.055-1.009s.957-.36 1.526-.36c.495 0 .938.093 1.328.28.39.188.698.462.924.823l-.58.382a1.797 1.797 0 0 0-.721-.62 2.195 2.195 0 0 0-.951-.208c-.416 0-.79.09-1.121.271s-.59.437-.777.77-.278.71-.278 1.136c0 .431.093.812.278 1.14s.445.585.777.765.705.27 1.12.27c.343 0 .66-.066.952-.2.292-.135.532-.34.722-.617l.58.383c-.227.36-.537.635-.93.822a3.038 3.038 0 0 1-1.323.282zm6.801-.393a1.483 1.483 0 0 1-.541.292c-.215.067-.44.1-.673.1-.54 0-.955-.141-1.246-.424-.292-.283-.438-.683-.438-1.2v-3.375h-1.028v-.637h1.028v-1.221h.777v1.22h1.75v.638h-1.75v3.333c0 .333.085.586.257.759.17.173.417.26.738.26.16 0 .315-.025.464-.074.15-.05.28-.12.389-.213zm3.5-3.907c.801.043 1.411.253 1.83.632s.63.872.63 1.48c0 .425-.106.802-.318 1.131-.211.33-.525.59-.94.78-.416.192-.922.287-1.52.287-.554 0-1.077-.087-1.57-.26s-.887-.405-1.186-.695l.383-.605c.255.254.594.461 1.017.62.423.16.875.24 1.356.24.627 0 1.112-.133 1.454-.399.343-.265.514-.631.514-1.098 0-.46-.171-.821-.514-1.083-.342-.262-.86-.393-1.552-.393h-.547v-.563l2.121-2.58h-3.914v-.679h4.92v.542zm6.735-.202c.503 0 .95.092 1.34.276.39.185.694.445.912.78.22.337.328.728.328 1.174 0 .453-.113.853-.339 1.2a2.218 2.218 0 0 1-.934.8 3.1 3.1 0 0 1-1.34.282c-1.013 0-1.79-.324-2.329-.971-.54-.648-.81-1.562-.81-2.744 0-.828.147-1.529.438-2.102.292-.573.7-1.007 1.225-1.3s1.137-.441 1.837-.441c.758 0 1.363.134 1.815.403l-.317.616c-.365-.234-.86-.35-1.487-.35-.846 0-1.51.26-1.99.78-.481.52-.722 1.275-.722 2.266 0 .177.011.379.033.605.19-.403.492-.716.907-.94.416-.222.893-.334 1.433-.334zm-.066 3.865c.554 0 1.004-.147 1.35-.44.347-.295.52-.686.52-1.174 0-.488-.173-.878-.52-1.168-.346-.29-.814-.435-1.404-.435-.387 0-.728.07-1.023.212a1.71 1.71 0 0 0-.694.584 1.444 1.444 0 0 0-.252.828c0 .283.079.545.235.786s.389.435.695.584.67.223 1.093.223zm5.566-3.8c1.108 0 1.915.192 2.422.578.507.385.76.925.76 1.619 0 .431-.104.817-.312 1.157-.207.34-.519.607-.935.801-.415.195-.925.292-1.53.292a4.654 4.654 0 0 1-1.559-.26c-.492-.173-.887-.405-1.186-.695l.383-.605c.255.254.59.461 1.006.62.415.16.864.24 1.345.24.634 0 1.124-.138 1.47-.414.347-.276.52-.644.52-1.105 0-.51-.195-.895-.585-1.157-.39-.261-1.048-.392-1.974-.392h-1.63l.394-3.727h4.188v.68h-3.499l-.262 2.367z" fill="#b0afc6"/><g fill-rule="nonzero"><path d="M23.183 18.72l-9.74-17.49C12.986.41 12.383 0 11.781 0c-.602 0-1.205.41-1.662 1.23L.38 18.72c-.913 1.642-.12 2.985 1.765 2.985H21.42c1.884 0 2.678-1.343 1.764-2.984zm-17.612-.854a.427.427 0 1 1-.002-.855.427.427 0 0 1 .002.855zm6.372-10.883l-4.712 8.53a.428.428 0 0 1-.75-.411l4.711-8.53a.428.428 0 0 1 .75.41z" fill="#1892eb"/><path d="M26.343 5.54c-2.713 0-5.218.881-7.245 2.37l5.582 10.015c.738 1.323.79 2.707.145 3.797-.645 1.09-1.887 1.716-3.408 1.716H15.59a12.213 12.213 0 0 0 10.753 6.392c6.742 0 12.208-5.438 12.208-12.145 0-6.708-5.466-12.145-12.208-12.145z" fill="#0074e4"/></g></g></svg>