<svg height="80" viewBox="0 0 77 80" width="77" xmlns="http://www.w3.org/2000/svg"><g fill="none"><path d="M76.835 37.426C76.652 16.576 59.61-.178 38.765 0 17.737.001 0 16.757 0 37.426v10.609h15.896V67.91H41.07v11.926h35.766z" fill="#0074e4"/><path d="M43.904 7.16c11.098 10.903 11.856 19.088 0 30.477-11.099-10.903-11.857-19.087 0-30.476z" fill="#fff" opacity=".6"/><path d="M23.858 15.872c15.555-.14 21.878 5.111 21.545 21.55-15.555.14-21.877-5.11-21.545-21.55z" fill="#072a44"/><path d="M13.248 38.76a6.632 6.632 0 0 1-6.624-6.626h2.65a3.975 3.975 0 1 0 7.948 0h2.65a6.632 6.632 0 0 1-6.624 6.625z" fill="#fff"/><path d="M65.274 15.872c.14 15.559-5.11 21.883-21.545 21.55-.14-15.56 5.11-21.883 21.545-21.55z" fill="#18baeb"/></g></svg>