<svg height="79" viewBox="0 0 80 79" width="80" xmlns="http://www.w3.org/2000/svg"><g fill="none"><g fill="#0074e4"><path d="M79.817 39.207c-.003-2.781-1.638-5.034-3.97-5.034h-.254c-2.287.191-4.075 2.028-4.178 4.292l-3.55 18.048v.092a3.1 3.1 0 0 0-3.44.06l-10.04 6.974a2.682 2.682 0 0 0-1.157 2.201v13.013h13.306V76.47l9.348-5.878a9.764 9.764 0 0 0 3.957-8.166zM.028 39.207c.003-2.781 1.638-5.034 3.97-5.034h.254c2.287.191 4.074 2.028 4.178 4.292l3.55 18.048v.092a3.1 3.1 0 0 1 3.44.06l10.04 6.974a2.682 2.682 0 0 1 1.157 2.201v13.013H13.31V76.47l-9.348-5.878a9.764 9.764 0 0 1-3.958-8.166z"/></g><ellipse cx="39.922" cy="40.744" fill="#072a44" rx="22.62" ry="22.34"/><g fill="#18baeb"><ellipse cx="59.881" cy="15.775" rx="6.653" ry="6.571"/><ellipse cx="19.964" cy="15.775" rx="6.653" ry="6.571"/><ellipse cx="39.922" cy="6.576" rx="6.653" ry="6.571"/></g><path d="M25.818 38.115h-3.193c.01-8.705 7.153-15.76 15.967-15.77V25.5c-7.051.008-12.765 5.651-12.774 12.615z" fill="#fff"/></g></svg>