<svg height="10" viewBox="0 0 10 10" width="10" xmlns="http://www.w3.org/2000/svg"><path d="M5 0c.69 0 1.34.13 1.948.39s1.14.617 1.592 1.07c.453.452.809.983 1.07 1.592S10 4.31 10 5s-.13 1.34-.39 1.948-.617 1.14-1.07 1.592c-.452.453-.983.809-1.592 1.07S5.69 10 5 10s-1.34-.13-1.948-.39-1.14-.617-1.592-1.07C1.007 8.088.651 7.557.39 6.948S0 5.69 0 5s.13-1.34.39-1.948.617-1.14 1.07-1.592c.452-.453.983-.809 1.592-1.07S4.31 0 5 0zm0 9.385a4.22 4.22 0 0 0 1.704-.347 4.415 4.415 0 0 0 2.324-2.334c.231-.53.347-1.099.347-1.704s-.116-1.173-.347-1.704c-.23-.53-.543-.993-.937-1.387s-.856-.706-1.387-.937C6.174.74 5.605.625 5 .625S3.827.741 3.296.972c-.53.23-.993.543-1.387.937s-.706.856-.937 1.387C.74 3.826.625 4.395.625 5s.116 1.173.347 1.704a4.419 4.419 0 0 0 2.324 2.334A4.22 4.22 0 0 0 5 9.385zm1.768-6.153a.298.298 0 0 1 .087.22c0 .088-.029.161-.087.22L5.439 5l1.329 1.328a.298.298 0 0 1 .087.22.298.298 0 0 1-.307.307.298.298 0 0 1-.22-.087L5 5.439 3.672 6.768a.298.298 0 0 1-.22.087.298.298 0 0 1-.307-.307c0-.088.029-.161.087-.22L4.561 5 3.232 3.672a.298.298 0 0 1-.087-.22.298.298 0 0 1 .307-.307c.088 0 .161.029.22.087L5 4.561l1.328-1.329a.298.298 0 0 1 .22-.087c.088 0 .161.029.22.087z" fill="#d03602" fill-rule="evenodd"/></svg>